<svg width="216" height="45" viewBox="0 0 216 45" fill="none" xmlns="http://www.w3.org/2000/svg">
<path d="M150.59 2.99558L155.844 5.2922L161.094 2.9886L158.683 7.99241L161.101 12.993L155.847 10.6964L150.597 13L153.008 7.99618L150.59 2.99558Z" fill="#0B0B0B"/>
<path d="M163.476 0.0054857L167.601 1.80885L171.724 0L169.83 3.92913L171.73 7.85574L167.604 6.05238L163.482 7.86123L165.375 3.93209L163.476 0.0054857Z" fill="#0B0B0B"/>
<path d="M173.235 1.49182L176.468 2.90521L179.7 1.48752L178.216 4.56698L179.704 7.64447L176.471 6.23108L173.24 7.64877L174.724 4.56931L173.235 1.49182Z" fill="#0B0B0B"/>
<path d="M180.121 5.39519L183.354 6.80858L186.585 5.39089L185.101 8.47036L186.59 11.5478L183.357 10.1345L180.125 11.5521L181.609 8.47268L180.121 5.39519Z" fill="#0B0B0B"/>
<path d="M17.9298 28.046L25.6818 41H16.7398L11.9118 33.248L9.66784 35.322L8.54584 41H0.657844L5.41784 17.2H13.3058L11.6058 25.632L20.6498 17.2H29.8638L17.9298 28.046ZM51.9859 25.02C51.9859 27.128 51.4192 28.9753 50.2859 30.562C49.1752 32.126 47.5999 33.2933 45.5599 34.064L49.5379 41H41.2079L37.8419 35.016H35.8699L34.6799 41H26.6559L31.4159 17.2H42.0919C45.2199 17.2 47.6452 17.8913 49.3679 19.274C51.1132 20.634 51.9859 22.5493 51.9859 25.02ZM43.8599 25.802C43.8599 24.1927 42.8626 23.388 40.8679 23.388H38.1819L37.0599 28.964H40.3579C41.4686 28.964 42.3299 28.692 42.9419 28.148C43.5539 27.5813 43.8599 26.7993 43.8599 25.802ZM69.3299 36.852H60.2519L57.8719 41H49.4059L64.5699 17.2H72.4579L78.1019 41H70.1119L69.3299 36.852ZM68.2079 31.072L67.0519 24.986L63.5499 31.072H68.2079ZM112.634 17.2L107.942 41H100.632L102.74 30.154L96.0425 38.858H92.5065L88.8345 30.29L86.6925 41H79.3825L84.1425 17.2H90.6705L95.8385 29.848L105.8 17.2H112.634ZM123.246 23.252L122.702 26.04H132.766L131.61 31.82H121.512L120.9 34.948H132.834L131.61 41H111.822L116.582 17.2H135.928L134.704 23.252H123.246ZM160.029 25.02C160.029 27.128 159.462 28.9753 158.329 30.562C157.218 32.126 155.643 33.2933 153.603 34.064L157.581 41H149.251L145.885 35.016H143.913L142.723 41H134.699L139.459 17.2H150.135C153.263 17.2 155.688 17.8913 157.411 19.274C159.156 20.634 160.029 22.5493 160.029 25.02ZM151.903 25.802C151.903 24.1927 150.906 23.388 148.911 23.388H146.225L145.103 28.964H148.401C149.512 28.964 150.373 28.692 150.985 28.148C151.597 27.5813 151.903 26.7993 151.903 25.802ZM162.009 28.284H172.209L171.053 34.064H160.853L162.009 28.284ZM215.572 17.2L203.196 41H194.594L193.234 28.454L186.706 41H178.104L175.248 17.2H183.17L184.7 30.766L191.772 17.2H199.15L200.51 30.97L207.684 17.2H215.572Z" fill="#0B0B0B"/>
</svg>
