<svg width="144" height="55" viewBox="0 0 144 55" fill="none" xmlns="http://www.w3.org/2000/svg">
<path d="M132.264 18.7931H123.088L121.724 23.9439C120.981 26.6416 120.485 28.6051 120.485 30.444C120.485 33.5088 122.717 34.8594 125.32 34.8594C127.923 34.8594 129.784 34.3676 131.396 33.8782L129.784 40.2548C127.8 40.7465 125.444 41.1136 123.337 41.1136C116.516 41.1136 112.424 36.943 112.424 31.1804C112.424 29.2181 112.919 27.2545 113.665 24.1886L118.003 8H125.94L124.823 12.293H134L132.264 18.7931ZM102.504 17.9343C98.288 17.9343 94.8169 21.4909 93.5762 24.9251C94.196 25.0474 94.8169 25.0474 95.3118 25.0474C101.264 25.0474 105.604 23.6991 105.604 20.3873C105.604 18.5473 103.869 17.9343 102.504 17.9343ZM106.472 28.7263C102.752 30.3205 98.784 30.6887 92.8316 30.6887C92.8316 33.5088 94.5683 34.9817 98.6603 34.9817C102.133 34.9817 105.604 34.2464 108.332 33.3876L106.596 39.6419C103.621 40.5007 100.397 41.1136 97.0485 41.1136C90.104 41.1136 84.8963 38.1701 84.8963 30.6887C84.8963 20.7544 92.3367 11.9248 103.001 11.9248C107.587 11.9248 112.672 14.3778 112.672 19.8967C112.672 23.5756 110.316 26.8874 106.472 28.7263ZM71.256 18.5473C66.173 18.5473 63.1957 25.1698 63.1957 29.7075C63.1957 32.5287 65.3047 34.4911 68.2798 34.4911C73.3649 34.4911 75.9688 27.8675 75.9688 23.332C75.9688 20.5108 74.2321 18.5473 71.256 18.5473ZM68.2798 41.1136C64.4364 41.1136 61.8325 39.8877 60.467 38.5383L58.2354 46.6326H50.3L56.1287 24.9251C58.484 16.3413 64.0641 11.9248 71.9983 11.9248C78.6942 11.9248 84.0268 15.8496 84.0268 23.085C84.0268 31.9147 77.4546 41.1148 68.2786 41.1148M41.8675 18.792C36.7834 18.792 33.4349 24.9239 33.4349 29.7064C33.4349 32.4053 34.9242 34.2453 37.9004 34.2453C42.9844 34.2453 46.208 28.1122 46.208 23.3298C46.208 20.6309 44.8437 18.792 41.8675 18.792ZM36.9072 40.7454H13.5948L15.3315 34.2453H25.7482C25.3758 33.0182 25.251 31.5464 25.251 29.7064H10L11.7355 23.3298H26.9877C27.6074 21.7356 28.7232 20.1403 29.9627 18.792H19.4235L21.1601 12.2919H42.7358C49.804 12.2919 54.392 16.0932 54.392 22.8392C54.392 30.6876 48.0673 40.7454 36.9072 40.7454Z" fill="#007CC3"/>
</svg>
