<svg width="229" height="55" viewBox="0 0 229 55" fill="none" xmlns="http://www.w3.org/2000/svg">
<path fill-rule="evenodd" clip-rule="evenodd" d="M19.2611 18.0255C19.1521 18.167 19.0792 18.3317 19.0484 18.5061C19.0175 18.6805 19.0297 18.8596 19.0838 19.0285C18.6762 18.7691 18.4989 18.5875 18.4989 18.1639C18.1976 18.1639 17.8697 18.1639 17.8165 17.818L17.6304 17.3252C17.4496 17.1673 17.3223 16.9596 17.2653 16.7295C17.2083 16.4994 17.2244 16.2579 17.3114 16.0369C17.6243 16.0966 17.9412 16.1342 18.2596 16.1493C19.5101 15.3754 21.0051 15.0683 22.4692 15.2847C22.5858 14.8861 22.8091 14.525 23.1162 14.2385C23.896 13.7197 25.2076 13.6592 26.4041 13.4603C26.3066 12.5957 26.8915 12.1029 27.2194 11.3074C27.4244 11.7476 27.6865 12.1602 27.9993 12.5352C28.1233 11.7138 28.7348 11.3766 29.0273 10.6849C29.2843 11.7484 30.1705 12.5957 30.0021 13.6419C32.1557 13.7024 32.0582 16.9361 33.4939 17.3511L32.6963 18.0255C33.342 18.5971 33.7543 19.377 33.8572 20.2216C33.4494 19.9557 32.9646 19.8253 32.4747 19.8499C33.5205 20.3081 33.5293 21.3024 33.937 22.1757C33.5104 22.0116 33.1033 21.8029 32.7228 21.5532C32.8824 22.5734 34.1231 23.1008 34.4953 24.147C34.2911 23.9819 34.0545 23.8592 33.8001 23.7863C33.5456 23.7135 33.2786 23.6921 33.0153 23.7234C33.2634 24.735 34.1497 26.7495 36.1703 26.5247C38.5188 26.2135 40.7786 25.4785 43.1006 25.0462C46.7252 24.3632 49.0826 24.8906 50.8816 26.0059C51.7679 26.5593 52.1312 27.0175 52.9288 27.0867C53.4004 27.151 53.8802 27.0522 54.2849 26.8074C54.6896 26.5626 54.9937 26.1872 55.1444 25.7466C55.942 22.0979 48.6661 22.729 46.6632 22.7982C44.421 22.8847 41.8776 23.1354 39.8038 22.461C38.8149 22.2191 37.9367 21.6629 37.3077 20.8801C36.6786 20.0973 36.3346 19.1326 36.3298 18.1379C36.3696 17.1599 36.6999 16.2143 37.2804 15.4161C37.861 14.6178 38.6669 14.0015 39.6 13.6419C43.7386 11.9559 51.4843 12.2326 54.4265 10.365C54.3202 12.0337 52.1312 12.4401 51.3779 12.8205C54.9228 12.2758 57.9714 14.861 60.4529 12.0078C60.2579 13.5381 59.5667 14.446 58.5386 14.7918C57.2769 14.9775 55.9875 14.8496 54.7899 14.4201C55.7287 15.0397 56.8031 15.4364 57.9271 15.5786C56.058 15.9559 54.1135 15.7188 52.3971 14.9042C51.1209 14.3855 50.4474 14.0396 49.3396 14.2558C51.8299 14.2558 52.4591 17.0485 51.0589 18.5789C51.1421 18.1144 51.1116 17.6374 50.9699 17.1866C50.8282 16.7358 50.5793 16.3241 50.2435 15.985C51.0766 17.9045 50.1726 18.9679 49.4459 19.4435C49.7933 18.8814 49.9209 18.2159 49.8053 17.5693C49.6896 16.9227 49.3386 16.3386 48.8167 15.9245C47.514 14.8351 42.3473 14.5065 39.8392 15.7948C39.3099 15.984 38.8545 16.3299 38.5367 16.7842C38.2189 17.2384 38.0546 17.7783 38.0668 18.3281C38.1273 18.8693 38.3481 19.3816 38.7022 19.8024C39.0563 20.2231 39.5284 20.534 40.0608 20.6972L40.4242 20.775C40.7785 20.8809 41.1557 20.8902 41.5151 20.8018C41.8744 20.7134 42.202 20.5307 42.4625 20.2735C42.6734 20.0657 42.8327 19.8134 42.9279 19.5361C43.0232 19.2588 43.0519 18.9638 43.0119 18.674C43.0061 18.6511 43.0093 18.6269 43.0208 18.6061C43.0322 18.5853 43.0512 18.5695 43.074 18.5616C43.0934 18.5482 43.1166 18.541 43.1404 18.541C43.1642 18.541 43.1875 18.5482 43.2069 18.5616C43.4765 18.8495 43.6616 19.2031 43.7427 19.585C43.8238 19.9669 43.7979 20.363 43.6677 20.7318C43.6479 20.7831 43.6415 20.8385 43.6493 20.8929C43.657 20.9473 43.6786 20.9989 43.7121 21.043C43.752 21.0872 43.8011 21.1226 43.8561 21.1468C43.9111 21.171 43.9707 21.1835 44.0311 21.1835C44.0915 21.1835 44.1511 21.171 44.2061 21.1468C44.2611 21.1226 44.3102 21.0872 44.3501 21.043C45.13 20.0747 45.3782 19.3138 45.0503 18.4492C45.0352 18.4308 45.0269 18.4079 45.0269 18.3843C45.0269 18.3608 45.0352 18.3379 45.0503 18.3195C45.0691 18.3048 45.0926 18.2967 45.1167 18.2967C45.1409 18.2967 45.1643 18.3048 45.1832 18.3195C45.5247 18.5885 45.7803 18.947 45.92 19.3529C46.0598 19.7588 46.0778 20.1952 45.9719 20.6107C45.9542 20.6711 45.9514 20.7347 45.9638 20.7963C45.9761 20.8579 46.0032 20.9158 46.0428 20.9652C46.088 21.0178 46.1453 21.0592 46.2101 21.086C46.2749 21.1127 46.3452 21.124 46.4154 21.1189C46.4855 21.1138 46.5534 21.0926 46.6135 21.0568C46.6735 21.0211 46.724 20.9719 46.7607 20.9133C47.059 20.5295 47.2419 20.0722 47.2889 19.5927C47.3358 19.1132 47.245 18.6304 47.0265 18.1984C47.0097 18.1808 47.0004 18.1577 47.0004 18.1336C47.0004 18.1095 47.0097 18.0863 47.0265 18.0687C47.0446 18.0523 47.0683 18.0432 47.093 18.0432C47.1177 18.0432 47.1414 18.0523 47.1595 18.0687C48.3293 18.9852 48.5863 19.8844 48.1875 20.922C48.1789 20.9364 48.1744 20.9528 48.1744 20.9695C48.1744 20.9862 48.1789 21.0026 48.1875 21.0171C48.2014 21.0233 48.2165 21.0265 48.2318 21.0265C48.2471 21.0265 48.2622 21.0233 48.2761 21.0171C50.1175 20.9244 51.9629 21.0963 53.753 21.5272C55.5255 22.0201 57.0409 23.1268 57.0852 24.9857C58.1132 24.3805 59.1767 24.5015 60.2934 25.5823C60.3102 25.5999 60.3195 25.6231 60.3195 25.6471C60.3195 25.6712 60.3102 25.6944 60.2934 25.712C60.2768 25.7278 60.2545 25.7367 60.2313 25.7367C60.2081 25.7367 60.1859 25.7278 60.1693 25.712C58.964 25.2278 57.8296 25.6342 56.4205 26.9916C56.3025 27.124 56.1752 27.2483 56.0395 27.3634C55.1497 28.0974 54.0029 28.4662 52.8402 28.3923C53.5841 29.6826 54.0543 31.1058 54.2227 32.577C56.9346 33.7962 58.0423 36.0355 61.2416 37.3325C60.6029 37.9305 60.125 38.6729 59.8502 39.494C59.7013 40.1023 59.6006 40.7209 59.5489 41.3443C59.4249 42.1051 59.3362 43.013 58.7159 42.9438C58.6007 42.9438 58.5298 43.013 58.4766 43.1167C58.0867 43.8171 57.4308 44.405 56.6067 43.8776C55.5432 44.7422 54.5772 44.9325 54.0543 44.1024C53.9427 43.8247 53.7299 43.597 53.4568 43.463C53.1836 43.3289 52.8694 43.298 52.5743 43.3761C53.5758 42.0965 54.6924 41.4048 56.1192 42.01C56.5872 41.5556 56.9356 40.9974 57.1347 40.3831C57.3338 39.7689 57.3776 39.1168 57.2625 38.4824C52.3085 36.9001 50.1726 38.1365 47.9305 34.1593C47.6555 33.5668 47.4389 32.9502 47.2836 32.3177C47.2625 32.9595 47.3678 33.5994 47.5937 34.2025C47.1152 34.6521 46.4328 35.2314 45.9631 35.7675C44.6249 37.2719 43.0828 38.9234 43.6146 42.2954C42.7904 42.2954 40.9559 41.5518 39.4759 42.7536C38.8201 43.2897 38.7935 43.9208 37.7655 43.9468C37.6233 43.96 37.4799 43.9429 37.3453 43.8966C37.2106 43.8503 37.0879 43.776 36.9856 43.6788C36.6614 43.939 36.2452 44.064 35.8271 44.0268C35.409 43.9896 35.0228 43.7931 34.7523 43.4799C34.5396 43.0303 34.2472 42.5202 33.3875 42.8487C33.4693 42.4405 33.6877 42.0704 34.0086 41.7965C34.3294 41.5226 34.7344 41.3605 35.16 41.3356C35.6563 40.6094 36.64 40.471 38.2086 40.9984L40.5748 40.2549C41.0179 37.7561 40.8939 34.0037 42.2498 32.0929C37.7655 32.4733 32.2266 36.6235 27.6802 36.1047C28.6296 35.007 29.1479 33.6156 29.1425 32.1793C28.7348 34.3927 28.2563 35.0758 27.2105 36.0442C26.8472 36.39 26.4041 36.7272 25.9255 37.1941C24.4278 38.6899 22.2033 41.0071 20.4575 42.6671C20.8386 44.137 19.8371 43.9036 19.5712 44.1889C19.6776 43.5318 19.0218 43.1427 18.233 43.6528C18.069 43.7832 17.8801 43.8805 17.6772 43.939C17.4743 43.9974 17.2615 44.016 17.0511 43.9934C16.8408 43.9709 16.6372 43.9078 16.4521 43.8077C16.2671 43.7077 16.1043 43.5727 15.9732 43.4107C14.0678 43.6442 14.697 42.5461 13.4651 43.0562C14.1475 41.595 15.0869 40.7736 16.7353 41.2492C17.2653 41.3322 17.8078 41.2967 18.3217 41.1454C20.2005 40.5661 22.1945 35.534 22.5578 33.7097C22.5578 33.7097 22.5578 33.7097 22.5578 33.6665H22.6021C21.9421 32.5259 21.6429 31.2202 21.7425 29.914V29.8276C21.4695 30.9121 21.5093 32.0493 21.8577 33.1131C17.2582 32.8537 14.9363 28.9197 14.1919 29.4471C13.4474 29.9745 12.9423 30.6749 11.932 30.4069C12.2418 30.0478 12.4002 29.5873 12.3751 29.1186C12.0738 29.0062 11.8699 28.7208 11.8434 28.2021C11.2673 27.9946 11.3028 27.1818 11.8434 26.6631C10.514 25.4958 11.8877 25.124 10 24.735C11.675 23.8703 13.1195 24.2594 13.7487 25.5996C14.7679 27.8216 21.7868 29.4817 22.4692 27.0521C22.1324 26.8879 21.6716 25.8071 21.583 25.5131C22.1764 25.5316 22.7641 25.3943 23.2845 25.1154C23.1135 25.0303 22.9646 24.9081 22.8494 24.7583C22.7342 24.6084 22.6557 24.4348 22.6199 24.2508C22.9443 24.3085 23.2788 24.2739 23.5836 24.1513C23.8885 24.0287 24.1507 23.8231 24.3391 23.5591C24.1782 23.6012 24.0069 23.5829 23.8591 23.5076C23.7114 23.4323 23.5981 23.3057 23.5415 23.1527C24.605 22.8241 25.4558 22.3918 25.509 21.8817C25.5415 21.7216 25.51 21.5554 25.421 21.4172C25.3321 21.279 25.1923 21.1791 25.0304 21.1381C24.3031 21.17 23.5972 21.3876 22.9832 21.7693C22.4338 22.0373 22.097 22.4783 21.3791 22.5129C20.6613 22.5475 20.3423 21.5532 20.0675 20.8269C21.4855 22.1065 22.8591 19.7807 24.348 19.6423C23.7348 18.9567 22.9443 18.4442 22.0589 18.1583C21.1735 17.8724 20.2256 17.8235 19.3142 18.0169L19.2611 18.0255ZM19.1459 20.6712C21.4057 20.0141 22.2565 19.4781 23.8074 19.4954C22.7085 18.6307 21.0601 18.9334 18.8002 19.5732C16.5404 20.213 15.4148 19.5732 14.0589 18.9852C14.641 19.7267 15.433 20.2856 16.337 20.5929C17.241 20.9002 18.2175 20.9425 19.1459 20.7145V20.6712ZM25.2165 14.8351V14.7745C25.2165 14.7745 24.9861 14.8524 24.9418 14.8437C24.4729 14.768 23.9915 14.8503 23.577 15.0772C23.6577 15.3386 23.8039 15.5764 24.0024 15.7689C24.1103 15.5524 24.2667 15.3623 24.4599 15.2127C24.6532 15.063 24.8784 14.9576 25.119 14.9042C25.2254 14.8783 25.1899 14.8956 25.2165 14.8351Z" fill="#D00F2E"/>
<path d="M104.85 23.2935H95.6771L92.5221 35.2166H92.4601L89.5444 23.2935L88.9772 22.8612C86.7756 22.5724 84.5965 22.1391 82.4546 21.5643L78.8388 35.2166H78.7856L74.8242 18.8666C70.6485 17.0178 66.7514 14.6208 63.2412 11.7422L72.9897 42.6696H82.3926L85.6982 32.1385L88.1885 42.6696H97.5736L104.85 23.2935ZM209.424 29.7436C209.433 30.1444 209.298 30.5356 209.043 30.8503C208.765 31.1651 208.398 31.3936 207.989 31.5074C207.481 31.6615 206.951 31.7345 206.42 31.7235H202.148V27.8068H206.305C206.94 27.787 207.575 27.8688 208.184 28.0489C208.574 28.1564 208.915 28.3914 209.15 28.7147C209.346 29.0064 209.442 29.3516 209.424 29.7003V29.7436ZM218.331 42.7128L215.052 34.9313C216.125 34.3978 217.037 33.6025 217.702 32.6227C218.311 31.6351 218.618 30.4982 218.588 29.3458C218.593 28.5051 218.404 27.6741 218.036 26.9139C217.668 26.1538 217.13 25.4839 216.461 24.9536C215.779 24.3975 214.998 23.9694 214.157 23.6912C213.203 23.394 212.207 23.2452 211.206 23.2503H194.181V42.6696H202.157V36.2628H207.156L209.318 42.6696L218.331 42.7128ZM172.026 42.7128H193.1V37.7067H180.17V35.061H190.964V30.418H180.17V28.0921H193.127V23.2935H164.085L158.83 35.2598H158.768L153.149 23.2935H145.66L154.523 42.7128H163.606L172.079 25.1611V42.7128H172.026ZM153.211 42.7128H131.233V23.2935H139.35V37.1793H150.712L153.211 42.6696V42.7128ZM130.736 32.8043C130.746 33.7954 130.624 34.7837 130.373 35.744C129.936 37.3611 129.042 38.826 127.794 39.972C127.112 40.5754 126.352 41.0899 125.534 41.5024C124.684 41.9256 123.793 42.2673 122.875 42.5226C121.9 42.7861 120.904 42.9741 119.898 43.0846C118.856 43.2033 117.809 43.261 116.76 43.2575C115.7 43.2567 114.641 43.199 113.588 43.0846C112.569 42.9691 111.562 42.7754 110.575 42.5053C109.617 42.2513 108.69 41.8977 107.81 41.4505C106.975 41.0368 106.203 40.5132 105.514 39.8942C104.918 39.3486 104.396 38.7295 103.963 38.0525C103.508 37.3202 103.162 36.5283 102.935 35.7008C102.683 34.7464 102.561 33.7638 102.572 32.7784C102.566 30.5235 103.415 28.346 104.956 26.6655C105.749 25.8007 106.69 25.0779 107.739 24.5299C108.389 24.1799 109.071 23.8904 109.777 23.6653C110.534 23.4187 111.306 23.2223 112.09 23.0773C112.888 22.9217 113.685 22.8093 114.465 22.7315C115.938 22.5804 117.423 22.5804 118.896 22.7315C119.696 22.7997 120.492 22.9094 121.28 23.06C122.064 23.2115 122.839 23.4019 123.602 23.6307C124.308 23.8564 124.99 24.1459 125.64 24.4953C126.69 25.0374 127.632 25.7576 128.423 26.6223C129.188 27.4498 129.789 28.4084 130.196 29.4496C130.606 30.5045 130.813 31.6242 130.807 32.7524L130.736 32.8043ZM121.75 33.0378C121.753 32.3913 121.636 31.7497 121.404 31.1442C121.174 30.544 120.819 29.9968 120.361 29.537C119.904 29.0772 119.354 28.7148 118.746 28.4726C118.05 28.1993 117.306 28.0641 116.557 28.0748C115.816 28.064 115.08 28.1993 114.394 28.4726C113.793 28.7234 113.253 29.0945 112.808 29.562C112.38 30.0221 112.049 30.5597 111.833 31.1442C111.611 31.7518 111.5 32.3927 111.505 33.0378C111.504 33.9245 111.736 34.7967 112.179 35.5711C112.594 36.2968 113.207 36.8955 113.951 37.3003C114.773 37.715 115.685 37.9314 116.61 37.9314C117.535 37.9314 118.447 37.715 119.268 37.3003C120.013 36.897 120.627 36.2979 121.041 35.5711C121.507 34.7918 121.752 33.9054 121.75 33.0032V33.0378Z" fill="#D00F2E"/>
</svg>
