<svg width="189" height="55" viewBox="0 0 189 55" fill="none" xmlns="http://www.w3.org/2000/svg">
<path d="M37.4508 18.2942L29.821 27.0156L22.3279 18.2942H10.5898L24.6424 34.0292V43.525H34.4476V34.0964L48.1894 18.293L37.4508 18.2942Z" fill="#0B0B0B"/>
<path d="M49.7033 18.293H59.5421V29.5861C59.5421 32.6728 60.9231 36.3699 67.4143 36.3699C73.8022 36.3699 75.2517 32.6728 75.2517 29.5861V18.293H85.0568V30.3333C85.0568 35.2161 82.7099 43.9316 68.139 43.9316H66.758C51.8091 43.9316 49.7021 35.2173 49.7021 30.3333L49.7033 18.293Z" fill="#0B0B0B"/>
<path d="M87.7773 43.525V18.293H97.5825V28.2637L110.219 18.293H122.407L107.457 29.7558L122.89 43.525H110.116L97.5837 32.2308V43.525H87.7773Z" fill="#0B0B0B"/>
<path d="M178.589 24.6101H168.438V31.4152H178.589V24.6101Z" fill="#0B0B0B"/>
<path d="M158.286 24.6102H148.134V17.8063H139.109L138.019 17.8193C121.377 17.8193 119.271 25.5519 119.271 30.3334V31.3505C119.271 36.0648 121.377 44.0001 138.019 44.0001H139.579C156.112 44.0001 158.271 36.1366 158.296 31.4153V24.6102H168.448V17.8052H158.296L158.286 24.6102ZM148.134 31.0865C148.117 33.7595 146.334 37.1844 138.775 37.1844C131.179 37.1844 129.416 33.6228 129.416 30.9781V30.5703C129.416 27.8914 131.038 24.602 138.775 24.602L148.134 24.6102V31.0865Z" fill="#0B0B0B"/>
<path d="M178.589 11H168.438V17.8051H178.589V11Z" fill="#0B0B0B"/>
<path d="M158.286 11H148.134V17.8051H158.286V11Z" fill="#0B0B0B"/>
</svg>
