<svg width="216" height="45" viewBox="0 0 216 45" fill="none" xmlns="http://www.w3.org/2000/svg"><path d="M150.59 2.996l5.254 2.296 5.25-2.303-2.411 5.003 2.418 5.001-5.254-2.297-5.25 2.304 2.411-5.004-2.418-5zM163.476.005l4.125 1.804L171.724 0l-1.894 3.93 1.9 3.926-4.126-1.804-4.122 1.81 1.893-3.93-1.899-3.927zm9.759 1.487l3.233 1.413 3.232-1.417-1.484 3.079 1.488 3.077-3.233-1.413-3.231 1.418 1.484-3.08-1.489-3.077zm6.886 3.903l3.233 1.414 3.231-1.418-1.484 3.08 1.489 3.077-3.233-1.414-3.232 1.418 1.484-3.08-1.488-3.077zM17.93 28.046L25.682 41H16.74l-4.828-7.752-2.244 2.074L8.546 41H.658l4.76-23.8h7.888l-1.7 8.432L20.65 17.2h9.214L17.93 28.046zm34.056-3.026c0 2.108-.567 3.955-1.7 5.542-1.11 1.564-2.686 2.731-4.726 3.502L49.538 41h-8.33l-3.366-5.984H35.87L34.68 41h-8.024l4.76-23.8h10.676c3.128 0 5.553.691 7.276 2.074 1.745 1.36 2.618 3.275 2.618 5.746zm-8.126.782c0-1.61-.997-2.414-2.992-2.414h-2.686l-1.122 5.576h3.298c1.11 0 1.972-.272 2.584-.816.612-.567.918-1.349.918-2.346zm25.47 11.05h-9.078L57.872 41h-8.466L64.57 17.2h7.888L78.102 41h-7.99l-.782-4.148zm-1.122-5.78l-1.156-6.086-3.502 6.086h4.658zM112.634 17.2L107.942 41h-7.31l2.108-10.846-6.697 8.704h-3.537l-3.671-8.568L86.693 41h-7.31l4.76-23.8h6.528l5.167 12.648L105.8 17.2h6.834zm10.612 6.052l-.544 2.788h10.064l-1.156 5.78h-10.098l-.612 3.128h11.934L131.61 41h-19.788l4.76-23.8h19.346l-1.224 6.052h-11.458zm36.783 1.768c0 2.108-.567 3.955-1.7 5.542-1.111 1.564-2.686 2.731-4.726 3.502L157.581 41h-8.33l-3.366-5.984h-1.972L142.723 41h-8.024l4.76-23.8h10.676c3.128 0 5.553.691 7.276 2.074 1.745 1.36 2.618 3.275 2.618 5.746zm-8.126.782c0-1.61-.997-2.414-2.992-2.414h-2.686l-1.122 5.576h3.298c1.111 0 1.972-.272 2.584-.816.612-.567.918-1.349.918-2.346zm10.106 2.482h10.2l-1.156 5.78h-10.2l1.156-5.78zM215.572 17.2L203.196 41h-8.602l-1.36-12.546L186.706 41h-8.602l-2.856-23.8h7.922l1.53 13.566 7.072-13.566h7.378l1.36 13.77 7.174-13.77h7.888z" fill="#0B0B0B"/></svg>