<svg width="144" height="55" viewBox="0 0 144 55" fill="none" xmlns="http://www.w3.org/2000/svg"><path d="M132.264 18.793h-9.176l-1.364 5.15c-.743 2.699-1.239 4.662-1.239 6.501 0 3.065 2.232 4.415 4.835 4.415 2.603 0 4.464-.491 6.076-.98l-1.612 6.376c-1.984.491-4.34.859-6.447.859-6.821 0-10.913-4.171-10.913-9.934 0-1.962.495-3.925 1.241-6.991L118.003 8h7.937l-1.117 4.293H134l-1.736 6.5zm-29.76-.859c-4.216 0-7.687 3.557-8.928 6.991.62.122 1.24.122 1.736.122 5.952 0 10.292-1.348 10.292-4.66 0-1.84-1.735-2.453-3.1-2.453zm3.968 10.792c-3.72 1.595-7.688 1.963-13.64 1.963 0 2.82 1.736 4.293 5.828 4.293 3.473 0 6.944-.736 9.672-1.594l-1.736 6.254c-2.975.859-6.199 1.472-9.547 1.472-6.945 0-12.153-2.944-12.153-10.425 0-9.935 7.44-18.764 18.105-18.764 4.586 0 9.671 2.453 9.671 7.972 0 3.679-2.356 6.99-6.2 8.83zM71.256 18.547c-5.083 0-8.06 6.623-8.06 11.16 0 2.822 2.109 4.784 5.084 4.784 5.085 0 7.689-6.623 7.689-11.159 0-2.821-1.737-4.785-4.713-4.785zM68.28 41.114c-3.844 0-6.447-1.226-7.813-2.576l-2.232 8.095H50.3l5.829-21.708c2.355-8.584 7.935-13 15.87-13 6.695 0 12.028 3.925 12.028 11.16 0 8.83-6.572 18.03-15.748 18.03M41.868 18.792c-5.085 0-8.433 6.132-8.433 10.914 0 2.7 1.49 4.54 4.465 4.54 5.084 0 8.308-6.134 8.308-10.916 0-2.7-1.364-4.538-4.34-4.538zm-4.96 21.953H13.594l1.736-6.5h10.417c-.372-1.227-.497-2.699-.497-4.539H10l1.736-6.376h15.252c.62-1.594 1.735-3.19 2.975-4.538h-10.54l1.737-6.5h21.576c7.068 0 11.656 3.801 11.656 10.547 0 7.849-6.325 17.906-17.485 17.906z" fill="#007CC3"/></svg>