<svg width="229" height="55" viewBox="0 0 229 55" fill="none" xmlns="http://www.w3.org/2000/svg"><path fill-rule="evenodd" clip-rule="evenodd" d="M19.261 18.026a1.101 1.101 0 00-.177 1.003c-.408-.26-.585-.442-.585-.865-.301 0-.63 0-.682-.346l-.187-.493a1.163 1.163 0 01-.365-.595 1.14 1.14 0 01.046-.693c.313.06.63.097.949.112a6.267 6.267 0 014.21-.864c.116-.399.34-.76.646-1.046.78-.52 2.092-.58 3.288-.779-.097-.864.488-1.357.815-2.153.205.44.467.853.78 1.228.124-.821.736-1.158 1.028-1.85.257 1.063 1.143 1.91.975 2.957 2.154.06 2.056 3.294 3.492 3.71l-.798.674a3.5 3.5 0 011.161 2.196 2.32 2.32 0 00-1.382-.372c1.045.458 1.054 1.452 1.462 2.326a6.403 6.403 0 01-1.214-.623c.16 1.02 1.4 1.548 1.772 2.594a1.968 1.968 0 00-1.48-.424c.248 1.012 1.135 3.027 3.155 2.802 2.349-.311 4.609-1.046 6.93-1.479 3.625-.683 5.983-.155 7.782.96.886.553 1.25 1.011 2.047 1.08a2.08 2.08 0 001.356-.279c.405-.244.709-.62.86-1.06.797-3.65-6.479-3.018-8.482-2.949-2.242.087-4.785.337-6.86-.337a4.602 4.602 0 01-2.495-1.58 4.41 4.41 0 01-.978-2.743 4.97 4.97 0 01.95-2.722 5.158 5.158 0 012.32-1.774c4.139-1.686 11.884-1.41 14.826-3.277-.106 1.669-2.295 2.075-3.048 2.455 3.545-.544 6.593 2.041 9.075-.812-.195 1.53-.886 2.438-1.914 2.784a7.764 7.764 0 01-3.75-.372 7.377 7.377 0 003.138 1.159 8.835 8.835 0 01-5.53-.675c-1.276-.518-1.95-.864-3.057-.648 2.49 0 3.12 2.793 1.719 4.323a2.922 2.922 0 00-.09-1.392 2.977 2.977 0 00-.726-1.202c.834 1.92-.07 2.983-.797 3.459a2.668 2.668 0 00.36-1.875 2.711 2.711 0 00-.99-1.644c-1.302-1.09-6.469-1.418-8.977-.13-.53.189-.984.535-1.302.99a2.591 2.591 0 00-.47 1.543 2.76 2.76 0 00.635 1.474 2.87 2.87 0 001.359.895l.363.078c.355.106.732.115 1.091.027.36-.089.687-.271.947-.529a1.869 1.869 0 00.55-1.599.093.093 0 01.009-.068.096.096 0 01.053-.044.117.117 0 01.133 0c.27.287.455.641.536 1.023a2.12 2.12 0 01-.075 1.147.32.32 0 00.044.311.424.424 0 00.32.14.434.434 0 00.318-.14c.78-.968 1.028-1.73.7-2.594a.102.102 0 010-.13.108.108 0 01.133 0c.342.27.597.628.737 1.034s.158.842.052 1.258a.388.388 0 00.07.354.444.444 0 00.373.154.451.451 0 00.346-.206 2.54 2.54 0 00.266-2.715.094.094 0 010-.13.099.099 0 01.133 0c1.17.917 1.426 1.816 1.028 2.854a.093.093 0 000 .095.109.109 0 00.088 0c1.841-.093 3.687.08 5.477.51 1.773.493 3.288 1.6 3.332 3.459 1.028-.605 2.092-.485 3.208.596a.094.094 0 010 .13.09.09 0 01-.124 0c-1.205-.484-2.34-.078-3.748 1.28a3.822 3.822 0 01-.382.371 4.575 4.575 0 01-3.199 1.03 10.846 10.846 0 011.383 4.184c2.712 1.22 3.82 3.459 7.019 4.756a5.242 5.242 0 00-1.392 2.161 11.83 11.83 0 00-.301 1.85c-.124.761-.213 1.669-.833 1.6-.115 0-.186.069-.24.173-.39.7-1.045 1.288-1.87.76-1.063.865-2.029 1.055-2.552.225a1.222 1.222 0 00-.597-.639 1.269 1.269 0 00-.883-.087c1.002-1.28 2.118-1.971 3.545-1.366a3.978 3.978 0 001.016-1.627 3.9 3.9 0 00.128-1.9c-4.954-1.583-7.09-.346-9.332-4.324a10.088 10.088 0 01-.647-1.841 4.912 4.912 0 00.31 1.885c-.479.45-1.161 1.028-1.63 1.564-1.34 1.505-2.881 3.156-2.35 6.528-.824 0-2.658-.743-4.138.459-.656.536-.682 1.167-1.71 1.193a1.006 1.006 0 01-.78-.268 1.623 1.623 0 01-2.234-.2c-.212-.449-.505-.959-1.364-.63.081-.408.3-.779.62-1.052a1.95 1.95 0 011.152-.461c.496-.727 1.48-.865 3.049-.338l2.366-.743c.443-2.499.319-6.251 1.675-8.162-4.484.38-10.023 4.53-14.57 4.012a5.964 5.964 0 001.462-3.926c-.407 2.214-.886 2.897-1.931 3.865-.364.346-.807.683-1.285 1.15-1.498 1.496-3.723 3.813-5.468 5.473.38 1.47-.62 1.237-.887 1.522.107-.657-.55-1.046-1.338-.536a1.61 1.61 0 01-1.182.34 1.622 1.622 0 01-.599-.185 1.586 1.586 0 01-.479-.397c-1.905.233-1.276-.865-2.508-.355.683-1.461 1.622-2.282 3.27-1.807.53.083 1.073.048 1.587-.104 1.879-.579 3.873-5.611 4.236-7.435v-.044h.044a6.5 6.5 0 01-.86-3.752v-.086a5.91 5.91 0 00.116 3.285c-4.6-.26-6.922-4.193-7.666-3.666-.745.527-1.25 1.228-2.26.96.31-.36.468-.82.443-1.288-.301-.113-.505-.398-.532-.917-.576-.207-.54-1.02 0-1.539-1.329-1.167.045-1.539-1.843-1.928 1.675-.865 3.12-.476 3.749.865 1.019 2.222 8.038 3.882 8.72 1.452-.337-.164-.797-1.245-.886-1.539a3.381 3.381 0 001.702-.398 1.252 1.252 0 01-.436-.357 1.213 1.213 0 01-.23-.507c.325.057.66.023.965-.1.305-.122.567-.328.755-.592a.68.68 0 01-.48-.051.654.654 0 01-.318-.355c1.064-.329 1.915-.761 1.968-1.271a.627.627 0 00-.088-.465.655.655 0 00-.39-.279 4.23 4.23 0 00-2.048.631c-.55.268-.886.71-1.604.744-.718.034-1.037-.96-1.312-1.686 1.418 1.28 2.792-1.046 4.281-1.185a5.222 5.222 0 00-2.29-1.484 5.335 5.335 0 00-2.744-.141l-.053.009zm-.115 2.645c2.26-.657 3.11-1.193 4.661-1.176-1.098-.864-2.747-.562-5.007.078s-3.385 0-4.741-.588a4.897 4.897 0 002.278 1.608 5.02 5.02 0 002.809.122v-.044zm6.07-5.836v-.06s-.23.077-.274.069a2.136 2.136 0 00-1.365.233c.08.262.227.5.425.692a1.61 1.61 0 01.458-.556c.193-.15.418-.255.659-.309.106-.026.07-.008.098-.069z" fill="#D00F2E"/><path d="M104.85 23.294h-9.173l-3.155 11.923h-.062l-2.916-11.923-.567-.433a50.515 50.515 0 01-6.522-1.297l-3.616 13.653h-.053l-3.962-16.35a50.515 50.515 0 01-11.583-7.125L72.99 42.67h9.403l3.305-10.532 2.49 10.532h9.386l7.276-19.377zm104.574 6.45c.009.4-.126.792-.381 1.106a2.189 2.189 0 01-1.054.657 5.047 5.047 0 01-1.569.216h-4.272v-3.916h4.157a5.97 5.97 0 011.879.242c.39.107.731.342.966.666.196.291.292.637.274.985v.044zm8.907 12.969l-3.279-7.782a6.924 6.924 0 002.65-2.308 5.945 5.945 0 00.886-3.277 5.504 5.504 0 00-.552-2.432 5.639 5.639 0 00-1.575-1.96 7.247 7.247 0 00-2.304-1.263 9.758 9.758 0 00-2.951-.44h-17.025V42.67h7.976v-6.407h4.999l2.162 6.407 9.013.043zm-46.305 0H193.1v-5.006h-12.93V35.06h10.794v-4.643H180.17v-2.326h12.957v-4.798h-29.042L158.83 35.26h-.062l-5.619-11.966h-7.489l8.863 19.419h9.083l8.473-17.552v17.552h-.053zm-18.815 0h-21.978v-19.42h8.117V37.18h11.362l2.499 5.49v.044zm-22.475-9.909c.01.991-.112 1.98-.363 2.94a8.895 8.895 0 01-2.579 4.228 10.641 10.641 0 01-2.26 1.53c-.85.424-1.741.765-2.659 1.02a19.63 19.63 0 01-2.977.563 26.92 26.92 0 01-3.138.172c-1.06 0-2.119-.058-3.172-.172a19.907 19.907 0 01-3.013-.58 14.053 14.053 0 01-2.765-1.055 10.23 10.23 0 01-2.296-1.556 9.271 9.271 0 01-1.551-1.841 8.934 8.934 0 01-1.028-2.352 10.966 10.966 0 01-.363-2.923 9.007 9.007 0 012.384-6.112 10.15 10.15 0 012.783-2.136c.65-.35 1.332-.64 2.038-.865a18.08 18.08 0 012.313-.588 25.821 25.821 0 012.375-.346 21.713 21.713 0 014.431 0 23.2 23.2 0 014.706.9 12.06 12.06 0 012.038.864 9.966 9.966 0 012.783 2.127 8.984 8.984 0 011.773 2.828 8.982 8.982 0 01.611 3.302l-.071.052zm-8.986.234a5.223 5.223 0 00-.346-1.894 4.621 4.621 0 00-1.043-1.607 4.76 4.76 0 00-1.615-1.064 5.765 5.765 0 00-2.189-.398 5.626 5.626 0 00-2.163.398 4.673 4.673 0 00-1.586 1.089c-.428.46-.759.998-.975 1.582a5.394 5.394 0 00-.328 1.894 5.088 5.088 0 00.674 2.533 4.534 4.534 0 001.772 1.73 5.907 5.907 0 005.317 0 4.505 4.505 0 001.773-1.73 4.98 4.98 0 00.709-2.568v.035z" fill="#D00F2E"/></svg>