<svg width="189" height="55" viewBox="0 0 189 55" fill="none" xmlns="http://www.w3.org/2000/svg"><path d="M37.45 18.294l-7.629 8.722-7.493-8.722H10.59L24.642 34.03v9.496h9.806v-9.429l13.741-15.803-10.738.001zm12.253-.001h9.84v11.293c0 3.087 1.38 6.784 7.871 6.784 6.388 0 7.838-3.697 7.838-6.784V18.293h9.805v12.04c0 4.883-2.347 13.599-16.918 13.599h-1.381c-14.949 0-17.056-8.715-17.056-13.599l.001-12.04zm38.074 25.232V18.293h9.805v9.97l12.637-9.97h12.188l-14.95 11.463 15.433 13.769h-12.774L97.584 32.231v11.294h-9.807zm90.812-18.915h-10.151v6.805h10.151V24.61z" fill="#0B0B0B"/><path d="M158.286 24.61h-10.152v-6.804h-9.025l-1.09.013c-16.642 0-18.748 7.733-18.748 12.514v1.018c0 4.714 2.106 12.65 18.748 12.65h1.56c16.533 0 18.692-7.864 18.717-12.586V24.61h10.152v-6.805h-10.152l-.01 6.805zm-10.152 6.477c-.017 2.673-1.8 6.097-9.359 6.097-7.596 0-9.359-3.561-9.359-6.206v-.408c0-2.679 1.622-5.968 9.359-5.968l9.359.008v6.477zM178.589 11h-10.151v6.805h10.151V11zm-20.303 0h-10.152v6.805h10.152V11z" fill="#0B0B0B"/></svg>