<svg width="18" height="18" viewBox="0 0 18 18" fill="none" xmlns="http://www.w3.org/2000/svg">
<path d="M16.1254 9.00043C16.1254 9.20743 15.9574 9.37543 15.7504 9.37543H3.15566L7.7652 13.9849C7.91145 14.1312 7.91145 14.3689 7.7652 14.5152C7.6917 14.5887 7.5957 14.6247 7.4997 14.6247C7.4037 14.6247 7.3077 14.5879 7.2342 14.5152L1.9842 9.26518C1.83795 9.11893 1.83795 8.88118 1.9842 8.73493L7.2342 3.48493C7.38045 3.33868 7.61818 3.33868 7.76443 3.48493C7.91068 3.63118 7.91068 3.86893 7.76443 4.01518L3.15493 8.62468H15.7504C15.9574 8.62543 16.1254 8.79269 16.1254 9.00043Z" fill="#fff"/>
</svg>
