<svg width="33" height="29" viewBox="0 0 33 29" fill="none" xmlns="http://www.w3.org/2000/svg">
<path d="M7.79277 8.5C7.28622 8.5 6.85967 8.87878 6.79979 9.38179L5.13312 23.3818C5.06229 23.9767 5.52696 24.5 6.12611 24.5H23.8739C24.473 24.5 24.9377 23.9767 24.8669 23.3818L23.2002 9.38179C23.1403 8.87878 22.7138 8.5 22.2072 8.5H7.79277Z" stroke="#727272" stroke-width="2" stroke-miterlimit="10" stroke-linecap="round"/>
<path d="M19 10.5C19 9.916 19 7.31929 19 6.73529C19 4.396 17.2093 2.5 15 2.5C12.7907 2.5 11 4.396 11 6.73529C11 7.31929 11 9.916 11 10.5" stroke="#727272" stroke-width="2" stroke-miterlimit="10" stroke-linecap="square"/>
<path d="M19 11.5C19.5523 11.5 20 11.0523 20 10.5C20 9.94772 19.5523 9.5 19 9.5C18.4477 9.5 18 9.94772 18 10.5C18 11.0523 18.4477 11.5 19 11.5Z" fill="#727272"/>
<path d="M11 11.5C11.5523 11.5 12 11.0523 12 10.5C12 9.94772 11.5523 9.5 11 9.5C10.4477 9.5 10 9.94772 10 10.5C10 11.0523 10.4477 11.5 11 11.5Z" fill="#727272"/>
</svg>
