<svg width="20" height="22" viewBox="0 0 20 22" fill="none" xmlns="http://www.w3.org/2000/svg">
<g clip-path="url(#clip0_1_648)">
<mask id="mask0_1_648" style="mask-type:luminance" maskUnits="userSpaceOnUse" x="-1" y="0" width="22" height="22">
<path d="M21 0H-1V22H21V0Z" fill="white"/>
</mask>
<g mask="url(#mask0_1_648)">
<path d="M19.7197 13.5853V5.69103L4.16815 2.88312V1.91262C4.16815 0.858012 3.31018 0 2.25557 0H0.280273V1.29596H2.25553C2.59555 1.29596 2.87219 1.5726 2.87219 1.91262V13.8789C2.87219 15.2603 3.99605 16.3842 5.3775 16.3842H5.8961V17.861C5.63133 17.745 5.33922 17.6801 5.03212 17.6801C3.84114 17.6801 2.87219 18.6491 2.87219 19.8401C2.87219 21.031 3.84114 22 5.03212 22C6.15024 22 7.07253 21.146 7.18122 20.0561H7.19206V16.3842H18.4237V17.861C18.159 17.745 17.8669 17.6801 17.5598 17.6801C16.3688 17.6801 15.3998 18.6491 15.3998 19.8401C15.3998 21.031 16.3688 22 17.5598 22C18.6779 22 19.6002 21.146 19.7089 20.0561H19.7197V15.0882H5.3775C4.71064 15.0882 4.16815 14.5457 4.16815 13.8789V13.3693L19.7197 13.5853ZM5.03212 20.704C4.55573 20.704 4.16815 20.3165 4.16815 19.8401C4.16815 19.3637 4.55573 18.9761 5.03212 18.9761C5.50852 18.9761 5.8961 19.3637 5.8961 19.8401C5.8961 20.3165 5.50852 20.704 5.03212 20.704ZM17.5598 20.704C17.0834 20.704 16.6958 20.3165 16.6958 19.8401C16.6958 19.3637 17.0834 18.9761 17.5598 18.9761C18.0362 18.9761 18.4237 19.3637 18.4237 19.8401C18.4237 20.3165 18.0362 20.704 17.5598 20.704ZM10.648 12.1632L8.05603 12.1272V4.90201L10.648 5.36998V12.1632ZM11.944 5.60399L14.3199 6.03299V12.2142L11.944 12.1812V5.60399ZM6.76007 12.1092L4.16815 12.0732V4.20003L6.76007 4.668V12.1092ZM18.4237 12.2712L15.6158 12.2322V6.26696L18.4237 6.77394V12.2712Z" fill="#DF1B05"/>
</g>
</g>
<defs>
<clipPath id="clip0_1_648">
<rect width="20" height="22" fill="white"/>
</clipPath>
</defs>
</svg>
