<svg width="22" height="22" viewBox="0 0 22 22" fill="none" xmlns="http://www.w3.org/2000/svg">
<g clip-path="url(#clip0_39_2395)">
<path d="M11 0C4.92499 0 0 4.92499 0 11C0 17.075 4.92499 22 11 22C17.075 22 22 17.075 22 11C22 4.92499 17.075 0 11 0ZM11 20.1667C5.93751 20.1667 1.83334 16.0625 1.83334 11C1.83334 5.93751 5.93751 1.83334 11 1.83334C16.0625 1.83334 20.1667 5.93751 20.1667 11C20.1667 16.0625 16.0625 20.1667 11 20.1667Z" fill="#DF1B05"/>
<path d="M11.0003 3.66663C10.494 3.66663 10.0836 4.07702 10.0836 4.58328V10.0833H7.33364C6.82739 10.0833 6.41699 10.4937 6.41699 10.9999C6.41699 11.5062 6.82739 11.9166 7.33364 11.9166H11.0003C11.5065 11.9166 11.9169 11.5062 11.9169 10.9999V4.58332C11.9169 4.07706 11.5065 3.66663 11.0003 3.66663Z" fill="#DF1B05"/>
</g>
<defs>
<clipPath id="clip0_39_2395">
<rect width="22" height="22" fill="white"/>
</clipPath>
</defs>
</svg>
