<svg width="36" height="36" viewBox="0 0 36 36" fill="none" xmlns="http://www.w3.org/2000/svg">
<path d="M27.3194 8.82692C27.1845 8.69173 27.0242 8.58447 26.8478 8.51129C26.6714 8.43811 26.4823 8.40044 26.2913 8.40044C26.1003 8.40044 25.9112 8.43811 25.7348 8.51129C25.5583 8.58447 25.3981 8.69173 25.2632 8.82692L18.1319 15.9436L11.0007 8.81234C10.8657 8.67732 10.7054 8.57022 10.529 8.49715C10.3526 8.42408 10.1635 8.38647 9.97254 8.38647C9.7816 8.38647 9.59253 8.42408 9.41613 8.49715C9.23972 8.57022 9.07943 8.67732 8.94442 8.81234C8.8094 8.94735 8.7023 9.10764 8.62923 9.28405C8.55616 9.46045 8.51855 9.64952 8.51855 9.84046C8.51855 10.0314 8.55616 10.2205 8.62923 10.3969C8.7023 10.5733 8.8094 10.7336 8.94442 10.8686L16.0757 17.9998L8.94442 25.1311C8.8094 25.2661 8.7023 25.4264 8.62923 25.6028C8.55616 25.7792 8.51855 25.9683 8.51855 26.1592C8.51855 26.3502 8.55616 26.5392 8.62923 26.7156C8.7023 26.892 8.8094 27.0523 8.94442 27.1873C9.07943 27.3224 9.23972 27.4295 9.41613 27.5025C9.59253 27.5756 9.7816 27.6132 9.97254 27.6132C10.1635 27.6132 10.3526 27.5756 10.529 27.5025C10.7054 27.4295 10.8657 27.3224 11.0007 27.1873L18.1319 20.0561L25.2632 27.1873C25.3982 27.3224 25.5585 27.4295 25.7349 27.5025C25.9113 27.5756 26.1003 27.6132 26.2913 27.6132C26.4822 27.6132 26.6713 27.5756 26.8477 27.5025C27.0241 27.4295 27.1844 27.3224 27.3194 27.1873C27.4544 27.0523 27.5615 26.892 27.6346 26.7156C27.7077 26.5392 27.7453 26.3502 27.7453 26.1592C27.7453 25.9683 27.7077 25.7792 27.6346 25.6028C27.5615 25.4264 27.4544 25.2661 27.3194 25.1311L20.1882 17.9998L27.3194 10.8686C27.8736 10.3144 27.8736 9.38109 27.3194 8.82692Z" fill="#0B0B0B"/>
</svg>
