<svg width="22" height="22" viewBox="0 0 22 22" fill="none" xmlns="http://www.w3.org/2000/svg">
<path d="M17.105 13.5025H13.8508M15.4733 11.9166V15.1708M19.8275 13.5208C19.8275 14.3366 19.5983 15.1066 19.195 15.7666C18.8113 16.4111 18.2663 16.9445 17.6137 17.3142C16.961 17.6839 16.2234 17.8772 15.4733 17.875C14.7236 17.8753 13.9867 17.6812 13.3344 17.3117C12.6821 16.9421 12.1368 16.4098 11.7516 15.7666C11.3365 15.0912 11.1175 14.3136 11.1191 13.5208C11.1191 11.1191 13.0716 9.16663 15.4733 9.16663C17.875 9.16663 19.8275 11.1191 19.8275 13.5208Z" stroke="#0B0B0B" stroke-miterlimit="10" stroke-linecap="round" stroke-linejoin="round"/>
<path d="M18.9658 3.68504V5.72004C18.9658 6.46254 18.4983 7.38837 18.04 7.85587L16.4267 9.27671C16.1144 9.2024 15.7944 9.16548 15.4733 9.16671C13.0717 9.16671 11.1192 11.1192 11.1192 13.5209C11.1192 14.3367 11.3483 15.1067 11.7517 15.7667C12.0908 16.335 12.5583 16.8209 13.1267 17.1692V17.4809C13.1267 18.04 12.76 18.7825 12.2925 19.0575L11 19.8917C9.79918 20.6342 8.13085 19.8 8.13085 18.315V13.4109C8.13085 12.76 7.75501 11.9259 7.38835 11.4675L3.86835 7.76421C3.41001 7.29671 3.03418 6.46254 3.03418 5.91254V3.77671C3.03418 2.66754 3.86835 1.83337 4.88585 1.83337H17.1142C18.1317 1.83337 18.9658 2.66754 18.9658 3.68504Z" stroke="#0B0B0B" stroke-miterlimit="10" stroke-linecap="round" stroke-linejoin="round"/>
</svg>
