<svg width="29" height="24" viewBox="0 0 29 24" fill="none" xmlns="http://www.w3.org/2000/svg">
<path d="M9.07758 6.6369C8.46572 6.6369 7.95001 7.09339 7.87575 7.70073L6.56446 18.4248C6.47622 19.1464 7.03931 19.7826 7.76629 19.7826H21.9082C22.6352 19.7826 23.1983 19.1464 23.11 18.4248L21.7987 7.70073C21.7245 7.09339 21.2088 6.6369 20.5969 6.6369H9.07758Z" stroke="#1A984F" stroke-width="1.21079" stroke-miterlimit="10" stroke-linecap="round"/>
<path d="M18.213 8.28005C18.213 7.80023 18.213 5.66677 18.213 5.18695C18.213 3.26498 16.7019 1.70721 14.8374 1.70721C12.973 1.70721 11.4619 3.26498 11.4619 5.18695C11.4619 5.66677 11.4619 7.80023 11.4619 8.28005" stroke="#1A984F" stroke-width="1.21079" stroke-miterlimit="10" stroke-linecap="square"/>
</svg>
