<svg width="14" height="14" viewBox="0 0 14 14" fill="none" xmlns="http://www.w3.org/2000/svg">
<path d="M10.4947 3.41529C10.4441 3.36459 10.384 3.32437 10.3178 3.29693C10.2517 3.26949 10.1807 3.25536 10.1091 3.25536C10.0375 3.25536 9.96657 3.26949 9.90041 3.29693C9.83425 3.32437 9.77416 3.36459 9.72357 3.41529L7.04935 6.08404L4.37513 3.40982C4.3245 3.35919 4.26439 3.31903 4.19824 3.29163C4.13209 3.26423 4.06118 3.25012 3.98958 3.25012C3.91798 3.25012 3.84708 3.26423 3.78092 3.29163C3.71477 3.31903 3.65467 3.35919 3.60403 3.40982C3.5534 3.46045 3.51324 3.52056 3.48584 3.58671C3.45844 3.65286 3.44434 3.72377 3.44434 3.79537C3.44434 3.86697 3.45844 3.93787 3.48584 4.00402C3.51324 4.07018 3.5534 4.13028 3.60403 4.18091L6.27825 6.85513L3.60403 9.52935C3.5534 9.57998 3.51324 9.64009 3.48584 9.70624C3.45844 9.77239 3.44434 9.8433 3.44434 9.9149C3.44434 9.9865 3.45844 10.0574 3.48584 10.1236C3.51324 10.1897 3.5534 10.2498 3.60403 10.3004C3.65467 10.3511 3.71477 10.3912 3.78092 10.4186C3.84708 10.446 3.91798 10.4601 3.98958 10.4601C4.06118 10.4601 4.13209 10.446 4.19824 10.4186C4.26439 10.3912 4.3245 10.3511 4.37513 10.3004L7.04935 7.62623L9.72357 10.3004C9.7742 10.3511 9.8343 10.3912 9.90046 10.4186C9.96661 10.446 10.0375 10.4601 10.1091 10.4601C10.1807 10.4601 10.2516 10.446 10.3178 10.4186C10.3839 10.3912 10.444 10.3511 10.4947 10.3004C10.5453 10.2498 10.5855 10.1897 10.6129 10.1236C10.6403 10.0574 10.6544 9.9865 10.6544 9.9149C10.6544 9.8433 10.6403 9.77239 10.6129 9.70624C10.5855 9.64009 10.5453 9.57998 10.4947 9.52935L7.82044 6.85513L10.4947 4.18091C10.7025 3.9731 10.7025 3.6231 10.4947 3.41529Z" fill="#0B0B0B"/>
</svg>
