<svg width="31" height="22" viewBox="0 0 31 22" fill="none" xmlns="http://www.w3.org/2000/svg">
<g clip-path="url(#clip0_39_2435)">
<path d="M0 11V21C0 21.5523 0.447715 22 1 22H30C30.5523 22 31 21.5523 31 21V1C31 0.447716 30.5523 0 30 0H1C0.447716 0 0 0.447715 0 1V11ZM27.4786 2.04041C27.4883 2.06549 26.1272 3.36725 23.0272 6.29907C15.8439 13.0906 16.4276 12.5457 16.2629 12.6255C15.7591 12.8672 15.1028 12.8238 14.6838 12.5206C14.5773 12.4431 4.57008 2.93409 3.78055 2.15896C3.72242 2.10197 3.68367 2.04497 3.69094 2.0313C3.70305 2.01306 7.01859 2.00622 15.5872 2.00622C26.1684 2.00622 27.4665 2.01078 27.4786 2.04041ZM6.10312 7.21554C8.24648 9.25824 10.0023 10.943 10.0023 10.9567C10.0023 10.9795 2.32984 18.3797 2.22086 18.4618C2.19906 18.48 2.17 18.4868 2.15547 18.4777C2.12883 18.4618 2.11914 3.59067 2.14578 3.52228C2.15547 3.50176 2.17 3.48808 2.18211 3.49264C2.1918 3.4972 3.95734 5.17057 6.10312 7.21554ZM28.8615 11.057C28.8663 15.7442 28.8591 18.4435 28.8445 18.4663C28.8252 18.4937 28.784 18.4663 28.6314 18.3181C26.6745 16.451 21.0703 11.0228 21.0752 11C21.0873 10.9453 28.7816 3.67275 28.8203 3.67731C28.8518 3.68187 28.8566 4.52083 28.8615 11.057ZM12.3758 13.1909C12.8359 13.624 13.2937 14.039 13.393 14.1096C14.0299 14.5702 14.8219 14.7959 15.6889 14.7662C16.2508 14.748 16.74 14.6317 17.2026 14.4106C17.6434 14.1985 17.7814 14.0914 18.6751 13.241C19.1861 12.7554 19.5276 12.4454 19.5518 12.4522C19.6027 12.4636 27.3454 19.9277 27.3357 19.9573C27.3284 19.9755 24.0105 19.9824 15.5097 19.9824C4.76383 19.9824 3.69336 19.9801 3.69336 19.9459C3.69336 19.9072 11.4748 12.4021 11.516 12.4021C11.5305 12.4021 11.9156 12.7577 12.3758 13.1909Z" fill="#DF1B05"/>
</g>
<defs>
<clipPath id="clip0_39_2435">
<rect width="31" height="22" fill="white"/>
</clipPath>
</defs>
</svg>
