<svg width="22" height="22" viewBox="0 0 22 22" fill="none" xmlns="http://www.w3.org/2000/svg">
<g clip-path="url(#clip0_1_633)">
<mask id="mask0_1_633" style="mask-type:luminance" maskUnits="userSpaceOnUse" x="-1268" y="-36" width="1920" height="6155">
<path d="M-1268 -36H652V6119H-1268V-36Z" fill="white"/>
</mask>
<g mask="url(#mask0_1_633)">
<mask id="mask1_1_633" style="mask-type:luminance" maskUnits="userSpaceOnUse" x="0" y="0" width="22" height="22">
<path d="M0 0H22V22H0V0Z" fill="white"/>
</mask>
<g mask="url(#mask1_1_633)">
<path d="M21.5727 17.4941L19.1327 15.8671L16.9657 14.4221C16.7638 14.2877 16.5187 14.2347 16.2794 14.2737C16.0401 14.3126 15.8244 14.4407 15.6756 14.6321L14.3336 16.3561C14.1941 16.5372 13.9943 16.6622 13.7705 16.7086C13.5467 16.7551 13.3137 16.7197 13.1137 16.6091C12.2037 16.1031 11.1276 15.6261 8.75165 13.2481C6.37665 10.8701 5.89665 9.7961 5.39165 8.8861C5.28069 8.68624 5.2451 8.45322 5.29134 8.22935C5.33758 8.00549 5.46259 7.80563 5.64365 7.6661L7.36965 6.3251C7.56107 6.17633 7.68912 5.96064 7.72807 5.72135C7.76703 5.48207 7.714 5.2369 7.57965 5.0351L6.17565 2.9341L4.50665 0.428098C4.36985 0.222692 4.15919 0.0778605 3.91842 0.0236732C3.67765 -0.0305142 3.42526 0.0101051 3.21365 0.137098L1.28665 1.2931C0.76665 1.5991 0.38365 2.0951 0.21765 2.6761C-0.30835 4.5961 -0.41535 8.8341 6.37565 15.6251C13.1656 22.4151 17.4037 22.3091 19.3247 21.7821C19.9058 21.6166 20.401 21.2338 20.7077 20.7131L21.8637 18.7871C21.9906 18.5755 22.0313 18.3231 21.9771 18.0823C21.9229 17.8416 21.7781 17.6309 21.5727 17.4941Z" fill="#DF1B05"/>
</g>
</g>
</g>
<defs>
<clipPath id="clip0_1_633">
<rect width="22" height="22" fill="white"/>
</clipPath>
</defs>
</svg>
