<svg width="60" height="60" viewBox="0 0 60 60" fill="none" xmlns="http://www.w3.org/2000/svg">
<path opacity="0.4" d="M48.3703 14.15L32.6454 5.675C30.9954 4.775 28.9954 4.775 27.3204 5.675L11.5954 14.15C10.4454 14.775 9.74535 16 9.74535 17.35C9.74535 18.7 10.4454 19.925 11.5954 20.55L27.3204 29.025C28.1454 29.475 29.0704 29.7 29.9704 29.7C30.8704 29.7 31.7954 29.475 32.6204 29.025L48.3454 20.55C49.4953 19.925 50.1954 18.7 50.1954 17.35C50.2453 16 49.5204 14.775 48.3703 14.15ZM24.7479 31.97L10.1229 24.645C8.99785 24.07 7.69785 24.145 6.62285 24.795C5.54785 25.445 4.92285 26.595 4.92285 27.845V41.67C4.92285 44.07 6.24785 46.22 8.39785 47.295L23.0229 54.595C23.5229 54.845 24.0729 54.97 24.6229 54.97C25.2729 54.97 25.9229 54.795 26.4979 54.42C27.5729 53.77 28.1979 52.62 28.1979 51.37V37.545C28.2229 35.195 26.8979 33.045 24.7479 31.97ZM55.0754 27.875V39.35C55.0504 39.325 55.0254 39.275 55.0004 39.25C55.0004 39.225 54.9779 39.2 54.9529 39.175C54.8529 39.025 54.7279 38.875 54.6029 38.75C54.5779 38.725 54.5529 38.675 54.5279 38.65C52.5029 36.4 49.5279 35 46.2528 35C43.1029 35 40.2279 36.3 38.1779 38.4C36.1505 40.4939 35.0149 43.2929 35.0102 46.2075C35.0056 49.122 36.1322 51.9246 38.1529 54.025L36.9779 54.625C36.4283 54.898 35.8179 55.0253 35.205 54.9947C34.5921 54.964 33.9974 54.7765 33.4779 54.45C32.4279 53.8 31.7779 52.65 31.7779 51.4V37.6C31.7779 35.2 33.1029 33.05 35.2529 31.975L49.8779 24.675C51.0029 24.1 52.3029 24.15 53.3779 24.825C54.4279 25.475 55.0754 26.625 55.0754 27.875Z" fill="#DFA103"/>
<path d="M54.9501 39.175C53.9003 37.8811 52.5739 36.8389 51.0683 36.125C49.5628 35.4112 47.9163 35.0438 46.2501 35.05C43.6001 35.05 41.1501 35.975 39.2251 37.525C37.9013 38.5712 36.8329 39.905 36.1009 41.4254C35.3689 42.9457 34.9924 44.6127 35.0001 46.3C35.0041 47.967 35.3784 49.6124 36.0961 51.117C36.8139 52.6216 37.857 53.9479 39.1501 55H39.1751C41.1001 56.6 43.5751 57.55 46.2501 57.55C49.1001 57.55 51.6751 56.5 53.6501 54.75C54.8563 53.6967 55.8237 52.398 56.4876 50.9408C57.1516 49.4835 57.4967 47.9014 57.5001 46.3C57.5001 43.6 56.5501 41.1 54.9501 39.175ZM51.9001 44.9L45.9001 50.45C45.5501 50.775 45.0751 50.95 44.6251 50.95C44.1501 50.95 43.6751 50.775 43.3001 50.4L40.5251 47.625C40.1764 47.2722 39.9809 46.7961 39.9809 46.3C39.9809 45.8039 40.1764 45.3278 40.5251 44.975C41.2501 44.25 42.4501 44.25 43.1751 44.975L44.6751 46.475L49.3501 42.15C50.1001 41.45 51.3001 41.5 52.0001 42.25C52.7251 43.025 52.6751 44.2 51.9001 44.9Z" fill="#DFA103"/>
</svg>
