<svg width="60" height="60" viewBox="0 0 60 60" fill="none" xmlns="http://www.w3.org/2000/svg">
<path d="M43.2751 28.125C43.3251 28.775 43.1001 29.45 42.6001 29.95L27.5501 45C24.2251 48.325 20.8751 48.325 17.5251 45L7.50013 34.975C5.80013 33.25 4.95013 31.525 5.00013 29.8H5.17513L42.9751 28.15L43.2751 28.125Z" fill="#DFA103"/>
<path opacity="0.4" d="M42.6 26.6L24.225 8.22499L22.05 6.04999C21.6972 5.70129 21.2211 5.50574 20.725 5.50574C20.2289 5.50574 19.7528 5.70129 19.4 6.04999C18.675 6.77499 18.675 7.97499 19.4 8.69999L21.575 10.875L7.5 24.95C5.9 26.55 5.05 28.175 5 29.8H5.175L42.975 28.15L43.275 28.125C43.242 27.5517 43.0021 27.0099 42.6 26.6Z" fill="#DFA103"/>
<path d="M40 56.8751H7.5C6.475 56.8751 5.625 56.0251 5.625 55.0001C5.625 53.9751 6.475 53.1251 7.5 53.1251H40C41.025 53.1251 41.875 53.9751 41.875 55.0001C41.875 56.0251 41.025 56.8751 40 56.8751ZM48.375 36.9501C48.2121 36.7838 48.0176 36.6516 47.8029 36.5615C47.5883 36.4713 47.3578 36.4248 47.125 36.4248C46.8922 36.4248 46.6617 36.4713 46.4471 36.5615C46.2324 36.6516 46.0379 36.7838 45.875 36.9501C45.1 37.8001 41.25 42.1501 41.25 45.4251C41.25 48.6751 43.875 51.3001 47.125 51.3001C50.375 51.3001 53 48.6751 53 45.4251C53 42.1501 49.15 37.8001 48.375 36.9501Z" fill="#DFA103"/>
</svg>
