<svg width="60" height="60" viewBox="0 0 60 60" fill="none" xmlns="http://www.w3.org/2000/svg">
<path d="M45 32.5C42.65 32.5 40.475 33.325 38.75 34.7C37.5766 35.6326 36.6295 36.8188 35.9801 38.1697C35.3306 39.5206 34.9955 41.0011 35 42.5C35 44.375 35.525 46.15 36.45 47.65C37.3314 49.1312 38.5833 50.3574 40.0824 51.2078C41.5816 52.0582 43.2765 52.5036 45 52.5C47.525 52.5 49.825 51.575 51.575 50C52.35 49.35 53.025 48.55 53.55 47.65C54.475 46.15 55 44.375 55 42.5C55 36.975 50.525 32.5 45 32.5ZM50.175 41.425L44.85 46.35C44.5 46.675 44.025 46.85 43.575 46.85C43.1 46.85 42.625 46.675 42.25 46.3L39.775 43.825C39.4263 43.4722 39.2308 42.9961 39.2308 42.5C39.2308 42.0039 39.4263 41.5278 39.775 41.175C40.5 40.45 41.7 40.45 42.425 41.175L43.625 42.375L47.625 38.675C48.375 37.975 49.575 38.025 50.275 38.775C50.975 39.525 50.925 40.7 50.175 41.425Z" fill="#DFA103"/>
<path opacity="0.4" d="M52.7254 53.75C52.7254 54.45 52.1754 55 51.4754 55H8.52539C7.82539 55 7.27539 54.45 7.27539 53.75C7.27539 43.4 17.4754 35 30.0004 35C32.5754 35 35.0754 35.35 37.3754 36.025C35.9004 37.775 35.0004 40.05 35.0004 42.5C35.0004 44.375 35.5254 46.15 36.4504 47.65C36.9504 48.5 37.6004 49.275 38.3504 49.925C40.1004 51.525 42.4254 52.5 45.0004 52.5C47.8004 52.5 50.3254 51.35 52.1254 49.5C52.5254 50.85 52.7254 52.275 52.7254 53.75Z" fill="#DFA103"/>
<path d="M30 30C33.3152 30 36.4946 28.683 38.8388 26.3388C41.183 23.9946 42.5 20.8152 42.5 17.5C42.5 14.1848 41.183 11.0054 38.8388 8.66117C36.4946 6.31696 33.3152 5 30 5C26.6848 5 23.5054 6.31696 21.1612 8.66117C18.817 11.0054 17.5 14.1848 17.5 17.5C17.5 20.8152 18.817 23.9946 21.1612 26.3388C23.5054 28.683 26.6848 30 30 30Z" fill="#DFA103"/>
</svg>
