<svg width="23" height="23" viewBox="0 0 23 23" fill="none" xmlns="http://www.w3.org/2000/svg">
<path fill-rule="evenodd" clip-rule="evenodd" d="M17.3403 10.0852C17.3403 14.1345 14.1036 17.3704 10.1683 17.3704C6.23299 17.3704 2.99629 14.1345 2.99629 10.0852C2.99629 6.03586 6.23299 2.8 10.1683 2.8C14.1036 2.8 17.3403 6.03586 17.3403 10.0852ZM16.3189 17.3749C14.664 18.8061 12.5159 19.6704 10.1683 19.6704C4.93705 19.6704 0.696289 15.379 0.696289 10.0852C0.696289 4.79144 4.93705 0.5 10.1683 0.5C15.3995 0.5 19.6403 4.79144 19.6403 10.0852C19.6403 12.1689 18.9833 14.0973 17.8674 15.6699L22.192 20.0461L23.0003 20.8641L21.3836 22.5001L20.5753 21.6821L16.3189 17.3749Z" fill="#727272"/>
</svg>
