<svg width="30" height="30" viewBox="0 0 30 30" fill="none" xmlns="http://www.w3.org/2000/svg">
<path d="M26.25 7.475C22.0875 7.0625 17.9 6.85 13.725 6.85C11.25 6.85 8.775 6.975 6.3 7.225L3.75 7.475M10.625 6.2125L10.9 4.575C11.1 3.3875 11.25 2.5 13.3625 2.5H16.6375C18.75 2.5 18.9125 3.4375 19.1 4.5875L19.375 6.2125M23.5625 11.425L22.75 24.0125C22.6125 25.975 22.5 27.5 19.0125 27.5H10.9875C7.5 27.5 7.3875 25.975 7.25 24.0125L6.4375 11.425M12.9125 20.625H17.075M11.875 15.625H18.125" stroke="#BEBEBE" stroke-width="2.1875" stroke-linecap="round" stroke-linejoin="round"/>
</svg>
