<svg width="20" height="24" viewBox="0 0 20 24" fill="none" xmlns="http://www.w3.org/2000/svg">
<path d="M14.327 6.31731C14.327 8.77072 12.3381 10.7596 9.88469 10.7596C7.43127 10.7596 5.44238 8.77072 5.44238 6.31731C5.44238 3.86389 7.43127 1.875 9.88469 1.875C12.3381 1.875 14.327 3.86389 14.327 6.31731Z" stroke="#727272" stroke-width="2"/>
<path d="M9.88461 22.1636C14.2851 22.1636 16.8203 21.0285 17.9964 20.298C18.5467 19.9561 18.818 19.3266 18.762 18.6746C18.6849 17.7759 18.3687 16.8784 18.049 16.1699C17.6367 15.2564 16.6866 14.7598 15.6844 14.7598H4.08483C3.08259 14.7598 2.13255 15.2564 1.72026 16.1699C1.40048 16.8784 1.08434 17.7759 1.00721 18.6746C0.951243 19.3266 1.22248 19.9561 1.77281 20.298C2.94888 21.0285 5.48416 22.1636 9.88461 22.1636Z" stroke="#727272" stroke-width="2"/>
</svg>
