<svg width="16" height="16" viewBox="0 0 16 16" fill="none" xmlns="http://www.w3.org/2000/svg">
<path d="M6.53017 11.3451C6.45017 11.3451 6.37517 11.3325 6.30517 11.3073C6.23517 11.2825 6.17017 11.2401 6.11017 11.1801L3.53017 8.60014C3.42017 8.49014 3.36757 8.34754 3.37237 8.17234C3.37757 7.99754 3.43517 7.85514 3.54517 7.74514C3.65517 7.63514 3.79517 7.58014 3.96517 7.58014C4.13517 7.58014 4.27517 7.63514 4.38517 7.74514L6.53017 9.89014L11.6152 4.80514C11.7252 4.69514 11.8678 4.64014 12.043 4.64014C12.2178 4.64014 12.3602 4.69514 12.4702 4.80514C12.5802 4.91514 12.6352 5.05754 12.6352 5.23234C12.6352 5.40754 12.5802 5.55014 12.4702 5.66014L6.95017 11.1801C6.89017 11.2401 6.82517 11.2825 6.75517 11.3073C6.68517 11.3325 6.61017 11.3451 6.53017 11.3451Z" fill="white"/>
</svg>
