<svg width="33" height="29" viewBox="0 0 33 29" fill="none" xmlns="http://www.w3.org/2000/svg"><path d="M7.793 8.5a1 1 0 00-.993.882l-1.667 14a1 1 0 00.993 1.118h17.748a1 1 0 00.993-1.118l-1.667-14a1 1 0 00-.993-.882H7.793z" stroke="#727272" stroke-width="2" stroke-miterlimit="10" stroke-linecap="round"/><path d="M19 10.5V6.735C19 4.396 17.21 2.5 15 2.5s-4 1.896-4 4.235V10.5" stroke="#727272" stroke-width="2" stroke-miterlimit="10" stroke-linecap="square"/><path d="M19 11.5a1 1 0 100-2 1 1 0 000 2zm-8 0a1 1 0 100-2 1 1 0 000 2z" fill="#727272"/></svg>