<svg width="20" height="22" viewBox="0 0 20 22" fill="none" xmlns="http://www.w3.org/2000/svg"><g clip-path="url(#clip0_1_648)"><mask id="mask0_1_648" style="mask-type:luminance" maskUnits="userSpaceOnUse" x="-1" y="0" width="22" height="22"><path d="M21 0H-1v22h22V0z" fill="#fff"/></mask><g mask="url(#mask0_1_648)"><path d="M19.72 13.585V5.691L4.168 2.883v-.97A1.915 1.915 0 002.256 0H.28v1.296h1.976c.34 0 .616.277.616.617v11.966a2.508 2.508 0 002.506 2.505h.518v1.477a2.162 2.162 0 00-3.024 1.98c0 1.19.97 2.159 2.16 2.159 1.118 0 2.04-.854 2.15-1.944h.01v-3.672h11.232v1.477a2.162 2.162 0 00-3.024 1.98c0 1.19.969 2.159 2.16 2.159 1.118 0 2.04-.854 2.149-1.944h.01v-4.968H5.379a1.21 1.21 0 01-1.21-1.21v-.509l15.552.216zM5.032 20.704a.865.865 0 010-1.728.865.865 0 010 1.728zm12.528 0a.865.865 0 010-1.728.865.865 0 010 1.728zm-6.912-8.54l-2.592-.037V4.902l2.592.468v6.793zm1.296-6.56l2.376.429v6.181l-2.376-.033V5.604zM6.76 12.109l-2.592-.036V4.2l2.592.468v7.441zm11.664.162l-2.808-.039V6.267l2.808.507v5.497z" fill="#DF1B05"/></g></g><defs><clipPath id="clip0_1_648"><path fill="#fff" d="M0 0h20v22H0z"/></clipPath></defs></svg>