<svg width="22" height="22" viewBox="0 0 22 22" fill="none" xmlns="http://www.w3.org/2000/svg"><g clip-path="url(#clip0_39_2395)" fill="#DF1B05"><path d="M11 0C4.925 0 0 4.925 0 11s4.925 11 11 11 11-4.925 11-11S17.075 0 11 0zm0 20.167a9.167 9.167 0 110-18.334 9.167 9.167 0 010 18.334z"/><path d="M11 3.667a.917.917 0 00-.916.916v5.5h-2.75a.917.917 0 100 1.834H11c.507 0 .917-.41.917-.917V4.583A.917.917 0 0011 3.667z"/></g><defs><clipPath id="clip0_39_2395"><path fill="#fff" d="M0 0h22v22H0z"/></clipPath></defs></svg>