<svg width="22" height="22" viewBox="0 0 22 22" fill="none" xmlns="http://www.w3.org/2000/svg"><path d="M17.105 13.502h-3.254m1.622-1.585v3.254m4.354-1.65c0 .816-.229 1.586-.632 2.246a4.316 4.316 0 01-3.722 2.108 4.336 4.336 0 01-3.721-2.108 4.273 4.273 0 01-.633-2.246 4.358 4.358 0 014.354-4.354 4.358 4.358 0 014.354 4.354z" stroke="#0B0B0B" stroke-miterlimit="10" stroke-linecap="round" stroke-linejoin="round"/><path d="M18.966 3.685V5.72c0 .743-.468 1.668-.926 2.136l-1.613 1.42a4.051 4.051 0 00-.954-.11 4.358 4.358 0 00-4.354 4.355c0 .816.23 1.586.633 2.246a4.099 4.099 0 001.375 1.402v.312c0 .559-.367 1.301-.835 1.576L11 19.893c-1.2.742-2.87-.092-2.87-1.577v-4.904c0-.651-.375-1.485-.742-1.944l-3.52-3.703c-.458-.467-.834-1.301-.834-1.851V3.777c0-1.11.834-1.944 1.852-1.944h12.228c1.018 0 1.852.835 1.852 1.852z" stroke="#0B0B0B" stroke-miterlimit="10" stroke-linecap="round" stroke-linejoin="round"/></svg>