<svg width="31" height="22" viewBox="0 0 31 22" fill="none" xmlns="http://www.w3.org/2000/svg"><g clip-path="url(#clip0_39_2435)"><path d="M0 11v10a1 1 0 001 1h29a1 1 0 001-1V1a1 1 0 00-1-1H1a1 1 0 00-1 1v10zm27.479-8.96c.01.025-1.352 1.327-4.452 4.26-7.183 6.79-6.6 6.246-6.764 6.326-.504.241-1.16.198-1.58-.105-.106-.078-10.113-9.587-10.902-10.362-.059-.057-.097-.114-.09-.128.012-.018 3.328-.025 11.896-.025 10.581 0 11.88.005 11.892.034zM6.103 7.216c2.143 2.042 3.9 3.727 3.9 3.74 0 .024-7.673 7.424-7.782 7.506-.022.018-.051.025-.066.016-.026-.016-.036-14.887-.01-14.956.01-.02.025-.034.037-.03.01.005 1.775 1.679 3.921 3.724zm22.758 3.841c.005 4.687-.002 7.386-.017 7.41-.019.027-.06 0-.213-.149-1.957-1.867-7.56-7.295-7.556-7.318.012-.055 7.707-7.327 7.745-7.323.032.005.037.844.041 7.38zm-16.485 2.134c.46.433.918.848 1.017.919.637.46 1.429.686 2.296.656a3.699 3.699 0 001.514-.355c.44-.213.578-.32 1.472-1.17.511-.486.853-.796.877-.789.05.012 7.793 7.476 7.784 7.505-.008.018-3.325.025-11.826.025-10.746 0-11.817-.002-11.817-.036 0-.039 7.782-7.544 7.823-7.544.014 0 .4.356.86.789z" fill="#DF1B05"/></g><defs><clipPath id="clip0_39_2435"><path fill="#fff" d="M0 0h31v22H0z"/></clipPath></defs></svg>