<svg width="22" height="22" viewBox="0 0 22 22" fill="none" xmlns="http://www.w3.org/2000/svg"><g clip-path="url(#clip0_1_633)"><mask id="mask0_1_633" style="mask-type:luminance" maskUnits="userSpaceOnUse" x="-1268" y="-36" width="1920" height="6155"><path d="M-1268-36H652v6155h-1920V-36z" fill="#fff"/></mask><g mask="url(#mask0_1_633)"><mask id="mask1_1_633" style="mask-type:luminance" maskUnits="userSpaceOnUse" x="0" y="0" width="22" height="22"><path d="M0 0h22v22H0V0z" fill="#fff"/></mask><g mask="url(#mask1_1_633)"><path d="M21.573 17.494l-2.44-1.627-2.167-1.445a.96.96 0 00-1.29.21l-1.342 1.724a.956.956 0 01-1.22.253c-.91-.506-1.986-.983-4.362-3.36-2.375-2.379-2.855-3.453-3.36-4.363a.955.955 0 01.252-1.22l1.726-1.34a.96.96 0 00.21-1.29L6.176 2.933 4.506.428a.96.96 0 00-1.292-.29L1.287 1.292c-.52.306-.903.802-1.07 1.383-.525 1.92-.632 6.158 6.159 12.95 6.79 6.79 11.028 6.683 12.949 6.156a2.353 2.353 0 001.383-1.069l1.156-1.926a.96.96 0 00-.291-1.293z" fill="#DF1B05"/></g></g></g><defs><clipPath id="clip0_1_633"><path fill="#fff" d="M0 0h22v22H0z"/></clipPath></defs></svg>