<svg width="60" height="60" viewBox="0 0 60 60" fill="none" xmlns="http://www.w3.org/2000/svg"><path d="M43.275 28.125c.05.65-.175 1.325-.675 1.825L27.55 45c-3.325 3.325-6.675 3.325-10.025 0L7.5 34.975C5.8 33.25 4.95 31.525 5 29.8h.175l37.8-1.65.3-.025z" fill="#DFA103"/><path opacity=".4" d="M42.6 26.6L24.225 8.225 22.05 6.05a1.885 1.885 0 00-2.65 0 1.886 1.886 0 000 2.65l2.175 2.175L7.5 24.95c-1.6 1.6-2.45 3.225-2.5 4.85h.175l37.8-1.65.3-.025A2.372 2.372 0 0042.6 26.6z" fill="#DFA103"/><path d="M40 56.875H7.5A1.889 1.889 0 015.625 55c0-1.025.85-1.875 1.875-1.875H40c1.025 0 1.875.85 1.875 1.875s-.85 1.875-1.875 1.875zm8.375-19.925a1.748 1.748 0 00-2.5 0c-.775.85-4.625 5.2-4.625 8.475a5.868 5.868 0 005.875 5.875A5.868 5.868 0 0053 45.425c0-3.275-3.85-7.625-4.625-8.475z" fill="#DFA103"/></svg>