<svg width="60" height="60" viewBox="0 0 60 60" fill="none" xmlns="http://www.w3.org/2000/svg"><path opacity=".4" d="M48.37 14.15L32.645 5.675c-1.65-.9-3.65-.9-5.325 0L11.595 14.15c-1.15.625-1.85 1.85-1.85 3.2s.7 2.575 1.85 3.2l15.725 8.475c.825.45 1.75.675 2.65.675.9 0 1.825-.225 2.65-.675l15.725-8.475c1.15-.625 1.85-1.85 1.85-3.2a3.49 3.49 0 00-1.825-3.2zM24.748 31.97l-14.625-7.325c-1.125-.575-2.425-.5-3.5.15-1.075.65-1.7 1.8-1.7 3.05V41.67c0 2.4 1.325 4.55 3.475 5.625l14.625 7.3c.5.25 1.05.375 1.6.375.65 0 1.3-.175 1.875-.55 1.075-.65 1.7-1.8 1.7-3.05V37.545c.025-2.35-1.3-4.5-3.45-5.575zm30.327-4.095V39.35c-.025-.025-.05-.075-.075-.1 0-.025-.022-.05-.047-.075-.1-.15-.225-.3-.35-.425-.025-.025-.05-.075-.075-.1-2.025-2.25-5-3.65-8.275-3.65-3.15 0-6.025 1.3-8.075 3.4a11.25 11.25 0 00-.025 15.625l-1.175.6a3.583 3.583 0 01-3.5-.175c-1.05-.65-1.7-1.8-1.7-3.05V37.6c0-2.4 1.325-4.55 3.475-5.625l14.625-7.3a3.505 3.505 0 013.5.15c1.05.65 1.697 1.8 1.697 3.05z" fill="#DFA103"/><path d="M54.95 39.175a11.15 11.15 0 00-8.7-4.125c-2.65 0-5.1.925-7.025 2.475A11.12 11.12 0 0035 46.3a11.251 11.251 0 004.15 8.7h.025c1.925 1.6 4.4 2.55 7.075 2.55 2.85 0 5.425-1.05 7.4-2.8a11.249 11.249 0 003.85-8.45c0-2.7-.95-5.2-2.55-7.125zM51.9 44.9l-6 5.55c-.35.325-.825.5-1.275.5-.475 0-.95-.175-1.325-.55l-2.775-2.775a1.885 1.885 0 010-2.65 1.886 1.886 0 012.65 0l1.5 1.5 4.675-4.325c.75-.7 1.95-.65 2.65.1.725.775.675 1.95-.1 2.65z" fill="#DFA103"/></svg>