<svg width="60" height="60" viewBox="0 0 60 60" fill="none" xmlns="http://www.w3.org/2000/svg"><path d="M45 32.5c-2.35 0-4.525.825-6.25 2.2A9.925 9.925 0 0035 42.5c0 1.875.525 3.65 1.45 5.15A9.926 9.926 0 0045 52.5c2.525 0 4.825-.925 6.575-2.5a8.983 8.983 0 001.975-2.35A9.802 9.802 0 0055 42.5c0-5.525-4.475-10-10-10zm5.175 8.925L44.85 46.35c-.35.325-.825.5-1.275.5-.475 0-.95-.175-1.325-.55l-2.475-2.475a1.885 1.885 0 010-2.65 1.886 1.886 0 012.65 0l1.2 1.2 4-3.7c.75-.7 1.95-.65 2.65.1s.65 1.925-.1 2.65z" fill="#DFA103"/><path opacity=".4" d="M52.725 53.75c0 .7-.55 1.25-1.25 1.25H8.525c-.7 0-1.25-.55-1.25-1.25C7.275 43.4 17.475 35 30 35c2.575 0 5.075.35 7.375 1.025A10.055 10.055 0 0035 42.5c0 1.875.525 3.65 1.45 5.15a9.21 9.21 0 001.9 2.275A9.802 9.802 0 0045 52.5c2.8 0 5.325-1.15 7.125-3 .4 1.35.6 2.775.6 4.25z" fill="#DFA103"/><path d="M30 30a12.5 12.5 0 100-25 12.5 12.5 0 000 25z" fill="#DFA103"/></svg>