<svg width="23" height="23" viewBox="0 0 23 23" fill="none" xmlns="http://www.w3.org/2000/svg"><path fill-rule="evenodd" clip-rule="evenodd" d="M17.34 10.085c0 4.05-3.236 7.285-7.172 7.285-3.935 0-7.172-3.236-7.172-7.285 0-4.05 3.237-7.285 7.172-7.285 3.936 0 7.172 3.236 7.172 7.285zm-1.021 7.29a9.37 9.37 0 01-6.15 2.295c-5.232 0-9.473-4.291-9.473-9.585C.696 4.791 4.937.5 10.168.5c5.232 0 9.472 4.291 9.472 9.585a9.619 9.619 0 01-1.773 5.585l4.325 4.376.808.818-1.616 1.636-.809-.818-4.256-4.307z" fill="#727272"/></svg>