<svg width="30" height="30" viewBox="0 0 30 30" fill="none" xmlns="http://www.w3.org/2000/svg"><path d="M26.25 7.475c-4.163-.412-8.35-.625-12.525-.625-2.475 0-4.95.125-7.425.375l-2.55.25m6.875-1.262l.275-1.638c.2-1.188.35-2.075 2.463-2.075h3.274c2.113 0 2.276.938 2.463 2.088l.275 1.625m4.188 5.212l-.813 12.587c-.137 1.963-.25 3.488-3.738 3.488h-8.024c-3.488 0-3.6-1.525-3.738-3.488l-.813-12.587m6.475 9.2h4.163m-5.2-5h6.25" stroke="#BEBEBE" stroke-width="2.188" stroke-linecap="round" stroke-linejoin="round"/></svg>